<svg width="142" height="76" viewBox="0 0 142 76" fill="none" xmlns="http://www.w3.org/2000/svg">
<path d="M40.348 56.4187L106.712 40.7874C109.549 42.8467 112.488 44.7522 115.699 46.1389C120.393 48.1665 125.802 49.0028 130.644 47.36C135.487 45.7173 139.525 41.2171 139.622 36.1045C139.704 31.846 137.135 27.8854 133.801 25.2343C133.06 24.6447 132.283 24.1093 131.48 23.6159C131.979 22.8158 132.435 21.99 132.835 21.1316C134.635 17.2712 135.166 12.5805 133.192 8.80603C130.823 4.27445 125.201 2.04951 120.135 2.74075C115.068 3.43199 110.601 6.59439 107.305 10.5041C105.051 13.1778 103.271 16.195 101.652 19.304L35.2878 34.9354C32.4507 32.8761 29.5111 30.9706 26.3008 29.5839C21.6064 27.5563 16.1977 26.72 11.3552 28.3627C6.51264 30.0055 2.47498 34.5056 2.37722 39.6183C2.29583 43.8769 4.86478 47.8374 8.19841 50.4885C8.93976 51.078 9.7164 51.6135 10.5197 52.1069C10.0211 52.907 9.56496 53.7328 9.16476 54.5912C7.36484 58.4515 6.83369 63.1423 8.80711 66.9168C11.1764 71.4483 16.7982 73.6733 21.8648 72.982C26.9315 72.2908 31.3983 69.1284 34.6942 65.2187C36.9483 62.5449 38.7282 59.5278 40.348 56.4187Z" fill="#FBDCAB"/>
<path d="M34.6926 65.219C31.3971 69.1287 26.9297 72.2906 21.8635 72.9818C16.7965 73.6732 11.1748 71.4482 8.80587 66.917C8.09485 65.5557 7.7087 64.0758 7.58962 62.5582C7.70418 62.8334 7.83118 63.1056 7.9709 63.3721C10.3398 67.9033 15.9615 70.1283 21.0286 69.4369C26.0948 68.7457 30.5619 65.5829 33.8574 61.6733C36.1116 58.9998 37.8916 55.983 39.5118 52.8733L105.875 37.242C108.713 39.3016 111.652 41.2069 114.863 42.5932C119.557 44.621 124.966 45.4575 129.808 43.8149C134.651 42.1721 138.689 37.6719 138.786 32.5598C138.792 32.259 138.785 31.9587 138.764 31.6613C139.335 33.0725 139.65 34.5692 139.621 36.1047C139.524 41.2168 135.486 45.717 130.643 47.3598C125.801 49.0024 120.392 48.1668 115.698 46.139C112.487 44.7518 109.548 42.8465 106.71 40.7878L40.347 56.4191C38.7266 59.5279 36.9465 62.5447 34.6926 65.219Z" fill="#D6C3A7"/>
<path d="M131.094 12.588C129.777 6.99444 123.257 2.745 114.21 8.33286C114.21 8.33286 124.78 4.84519 126.84 13.5901L131.094 12.588Z" fill="#FAF3E9"/>
<path d="M29.1533 34.4646C24.9708 30.2782 17.0386 27.2921 7.99162 32.8799C7.99162 32.8799 18.4973 29.8272 25.1697 36.1794L29.1533 34.4646Z" fill="#FAF3E9"/>
</svg>
